<?xml version="1.0" standalone="no"?>
<!DOCTYPE svg PUBLIC "-//W3C//DTD SVG 20010904//EN"
 "http://www.w3.org/TR/2001/REC-SVG-20010904/DTD/svg10.dtd">
<svg version="1.0" xmlns="http://www.w3.org/2000/svg"
 width="512.000000pt" height="512.000000pt" viewBox="0 0 512.000000 512.000000"
 preserveAspectRatio="xMidYMid meet">
<metadata>
Created by potrace 1.11, written by Peter Selinger 2001-2013
</metadata>
<g transform="translate(0.000000,512.000000) scale(0.100000,-0.100000)"
fill="#000000" stroke="none">
<path d="M1565 4332 l-980 -639 -3 -1757 -2 -1756 1975 0 1975 0 0 1758 0
1757 -553 360 c-303 198 -741 483 -972 634 -231 151 -429 276 -440 278 -13 2
-349 -211 -1000 -635z m1460 196 c248 -161 660 -431 918 -598 l467 -304 0
-1663 0 -1663 -34 0 -33 0 -11 98 c-50 434 -326 800 -782 1035 -208 108 -406
171 -665 213 -148 24 -504 24 -654 0 -627 -100 -1115 -419 -1337 -870 -61
-126 -101 -266 -111 -393 l-6 -83 -39 0 -38 0 2 1662 3 1662 310 202 c171 111
587 383 925 603 338 221 620 399 625 397 6 -2 213 -136 460 -298z"/>
<path d="M2405 4119 c-159 -21 -347 -95 -489 -192 -80 -54 -205 -175 -265
-256 -333 -450 -287 -1075 109 -1471 579 -580 1558 -374 1856 391 94 243 99
529 13 775 -134 384 -452 659 -859 744 -76 15 -280 21 -365 9z"/>
</g>
</svg>
